<?xml version="1.0" encoding="utf-8"?>
<!-- Generator: Adobe Illustrator 27.3.1, SVG Export Plug-In . SVG Version: 6.00 Build 0)  -->
<svg version="1.1" id="Layer_1" xmlns="http://www.w3.org/2000/svg" xmlns:xlink="http://www.w3.org/1999/xlink" x="0px" y="0px"
	 viewBox="0 0 550 75" style="enable-background:new 0 0 550 75;" xml:space="preserve">
<g>
	<path d="M42.6,5.6c6.5,0.1,12.9,0,19.3,0.5c6.9,0.5,11.5,5.8,11.8,12.7c0.1,2.3,0.1,4.6,0,6.9c-0.2,3.3-1.7,6.1-4.2,8.2
		c-1,0.9-1.3,1.7-0.8,3.1c2.1,6,4.1,12.1,6.2,18.2c0.2,0.6,0.4,1.3,0.6,2c-3.3,0-6.4,0-9.7,0c-1.7-5.1-3.5-10.3-5.2-15.4
		c-0.2-0.7-0.5-1.4-0.7-2.1c-0.7-2.1-0.7-2.1-3-2.1c-1.6,0-3.1,0-4.9,0c0,6.6,0,13.1,0,19.7c-3.1,0-6,0-9.2,0
		C42.6,40,42.6,23,42.6,5.6z M51.8,21.6C51.8,21.6,51.8,21.6,51.8,21.6c0,2.1,0,4.2,0,6.2c0,0.3,0.4,0.8,0.7,0.8
		c2.7,0,5.3,0.1,8-0.1c2.3-0.2,3.7-1.6,3.9-3.9c0.2-2,0.2-4,0-6c-0.2-2.7-1.5-4.1-4.3-4.3c-2.5-0.2-5-0.1-7.5-0.2
		c-0.7,0-0.9,0.4-0.9,1C51.8,17.4,51.8,19.5,51.8,21.6z"/>
	<path d="M4.2,57.2c0-2.5,0-4.9,0-7.3c0-14.3,0-28.6,0-42.9c0-1.1,0.2-1.4,1.4-1.4c5.7,0.1,11.3,0.1,17,0.3
		c6.4,0.3,11.5,4.5,12.9,10.3c0.3,1.3,0.5,2.6,0.5,4c0,7.8,0.2,15.7-0.1,23.5c-0.2,7-4.8,11.9-11.8,13c-2,0.3-4.1,0.5-6.2,0.5
		C13.5,57.3,9,57.2,4.2,57.2z M13.8,14.1c0,11.7,0,23,0,34.1c2.9,0,5.8,0.2,8.6-0.1c2.6-0.2,4.3-2.2,4.3-4.8
		c0.1-7.9,0.1-15.8,0-23.7c0-2.6-1.6-4.6-4.1-4.9C19.6,14.3,16.7,14.3,13.8,14.1z"/>
	<path d="M112.7,57.3c0-17.3,0-34.3,0-51.5c0.3,0,0.7-0.1,1-0.1c5.8,0.1,11.7,0,17.5,0.3c6.2,0.3,11.5,4.6,12.8,10.3
		c0.4,1.8,0.6,3.7,0.7,5.6c0.1,6.5,0.1,13.1,0,19.6c0,4.2-0.9,8.2-4.1,11.3c-2.6,2.6-5.8,3.9-9.4,4.1
		C125.1,57.2,119,57.2,112.7,57.3z M122.1,31.3C122.1,31.3,122,31.3,122.1,31.3c0,5.3,0,10.6-0.1,15.9c0,0.8,0.2,1.3,1.1,1.3
		c2.2,0,4.5,0.1,6.7-0.1c3.5-0.3,5.3-2.2,5.4-5.7c0.1-7.6,0.1-15.2,0-22.7c0-3.3-1.9-5.2-5.1-5.5c-2.4-0.2-4.7-0.1-7.1-0.2
		c-0.8,0-0.9,0.3-0.9,1C122.1,20.6,122.1,26,122.1,31.3z"/>
	<path d="M173.7,24.3c0-1.8,0-3.2,0-4.7c0-3.3-1.5-5.4-4.8-6c-1.6-0.3-3.3-0.2-4.9,0.1c-2.9,0.7-4.2,2.7-4.2,5.7c0,8,0,15.9,0,23.9
		c0,2.8,1.2,4.7,3.9,5.5c2.4,0.8,4.8,0.7,7.1-0.4c1.9-0.9,2.9-2.4,3-4.4c0.1-1.9,0-3.8,0-5.9c-2.1,0-4.1-0.1-6.1,0
		c-1.1,0-1.4-0.3-1.3-1.4c0.1-2,0-3.9,0-5.9c0-1.1,0.3-1.6,1.5-1.6c4.8,0,9.6,0,14.4,0c0.7,0,1.1,0.2,1,1c-0.1,4.7,0,9.3-0.2,14
		c-0.3,7-4.4,11.7-11.2,13.1c-5.2,1.1-10.2,0.8-14.9-1.9c-3.9-2.3-6.3-5.9-6.4-10.4c-0.3-8.7-0.4-17.5-0.2-26.2
		c0.1-7.9,5.6-13.4,13.6-14c4.3-0.4,8.4-0.1,12.2,2.1c4.2,2.4,6.4,6,6.8,10.7c0.2,1.9,0.2,3.7,0.3,5.6c0,0.6-0.1,1-0.9,1
		C179.4,24.3,176.6,24.3,173.7,24.3z"/>
	<path d="M259.9,57.2c-0.9-3.6-1.8-7-2.7-10.3c-0.1-0.3-0.6-0.6-0.8-0.6c-3.4,0-6.8,0-10.2,0c-0.7,0-0.9,0.4-1,1
		c-0.7,3-1.5,6-2.3,8.9c-0.2,0.8-0.5,1.2-1.4,1.1c-2.5-0.1-5.1,0-7.8,0c0.1-0.7,0.1-1.2,0.2-1.8c3.7-15.8,7.5-31.6,11.2-47.5
		c0.5-2.3,0.5-2.2,2.9-2.2c2.7,0,5.3,0,8,0c0.9,0,1.3,0.3,1.5,1.2c3.3,14.4,6.7,28.8,10.1,43.2c0.4,1.9,0.9,3.8,1.4,5.7
		c0.2,0.9,0.1,1.4-1.1,1.4C265.1,57.2,262.5,57.2,259.9,57.2z M251.4,18.5c-0.2,0.6-0.4,1-0.5,1.3c-1.1,5.6-2.3,11.2-3.4,16.8
		c-0.2,0.8,0.3,0.9,0.9,0.9c2,0,3.9,0,5.9-0.1c0.3,0,0.5-0.1,0.8-0.2C253.9,31.1,252.7,24.9,251.4,18.5z"/>
	<path d="M361.7,20.2c2.1,0,4.1,0,6,0c0.3,0,0.7,0.5,0.8,0.8c0.3,1.1,0.8,1,1.6,0.5c3.5-2.4,7.4-2.8,11.5-1.8
		c4.5,1.1,6.8,4.3,7.8,8.7c0.2,1.1,0.4,2.3,0.4,3.5c0,5.1,0.2,10.2-0.1,15.3c-0.5,7.8-6.4,12.2-14.2,10.7c-1.4-0.3-2.8-0.8-4.4-1.3
		c0,0.5-0.1,1.1-0.1,1.7c0,4.6,0,9.2,0,13.7c0,1.6-0.1,1.7-1.7,1.7c-2.2,0-4.3,0-6.5,0c-0.8,0-1-0.3-1-1c0-16.8,0-33.6,0-50.3
		C361.8,21.7,361.7,21,361.7,20.2z M370.9,38.6C370.9,38.6,370.9,38.6,370.9,38.6c0,1.2,0,2.4,0,3.6c0,1.2,0,2.5,0.3,3.7
		c0.5,2.4,2.4,3.8,4.9,3.7c2.5-0.1,4.4-1.5,4.5-4c0.2-4.7,0.1-9.5,0-14.2c0-1.7-1-3.2-2.8-3.6c-3.9-0.9-6.6,0.6-6.9,4.7
		C370.8,34.6,370.9,36.6,370.9,38.6z"/>
	<path d="M106.7,57.1c-8.6,0-17.1,0-25.8,0c0-2.1,0-4.1,0-6.1c0-14.7,0-29.4,0-44.1c0-1,0.2-1.3,1.3-1.3c7.9,0,15.7,0,23.6,0
		c0.9,0,1.2,0.3,1.2,1.2c-0.1,2,0,4.1,0,6.1c0,1-0.4,1.4-1.4,1.4c-4.7,0-9.3,0-14,0c-1,0-1.3,0.3-1.3,1.3c0.1,3.5,0,7.1,0,10.6
		c0,1.1,0.4,1.5,1.5,1.5c3.7,0,7.3,0,11,0c0.3,0,0.7,0,1.1,0.1c0,2.7,0,5.3-0.1,7.9c0,0.3-0.9,0.7-1.4,0.7c-3.1,0.1-6.2,0-9.4,0
		c-2.7,0-2.7,0-2.7,2.7c0,2.7,0,5.3,0,8c0,1.1,0.3,1.5,1.4,1.5c4.7-0.1,9.3,0,14-0.1c1,0,1.3,0.2,1.3,1.2c-0.1,2-0.1,3.9-0.1,5.9
		C106.9,56.1,106.8,56.6,106.7,57.1z"/>
	<path d="M215.4,48.4c0,2.8,0,5.5,0,8.1c0,0.2-0.7,0.6-1.1,0.6c-3.5,0-6.9,0-10.4,0c-4.7,0-9.4,0-14.2,0c0-0.7-0.1-1.4-0.1-2
		c0-15.2-0.1-30.5-0.1-45.7c0-0.9,0-1.8,0-2.7c0-0.7,0.2-1,1-1c8,0,15.9,0,23.9,0c0.9,0,1.2,0.3,1.2,1.2c-0.1,2,0,4,0,6
		c0,1.1-0.4,1.5-1.5,1.5c-4.7-0.1-9.3-0.1-14-0.2c-1,0-1.3,0.2-1.3,1.2c0.1,3.5,0,7,0,10.5c0,1.6,0.1,1.7,1.7,1.7
		c3.5,0,7.1,0,10.6,0c1,0,1.4,0.3,1.3,1.3c-0.1,2-0.1,3.9,0,5.9c0,1.2-0.5,1.5-1.6,1.5c-3.6-0.1-7.2,0-10.9-0.1
		c-1,0-1.3,0.2-1.3,1.2c0,3.1,0,6.2,0,9.2c0,1.6,0.1,1.7,1.7,1.7c4.7,0,9.5,0,14.2,0C214.9,48.4,215.2,48.4,215.4,48.4z"/>
	<path d="M462.4,1.3c3,0,5.8,0,8.9,0c0,10.7,0,21.4,0,32c0.1,0,0.2,0.1,0.3,0.1c0.5-0.7,1.1-1.3,1.6-2c2.5-3.5,4.9-7,7.4-10.5
		c0.2-0.3,0.6-0.7,0.9-0.7c3.1-0.1,6.1,0,9.5,0c-0.4,0.7-0.6,1.1-0.8,1.5c-3.3,4.8-6.5,9.5-9.9,14.3c-0.7,1.1-0.7,1.9-0.1,2.9
		c3.4,5.4,6.7,10.8,10,16.3c0.4,0.6,0.7,1.2,1.1,2.1c-1.7,0-3.1,0-4.5,0c-1.7,0-3.8,0.5-5.1-0.3c-1.3-0.7-1.9-2.7-2.8-4.2
		c-2.2-3.5-4.4-7.1-6.6-10.6c-0.2-0.3-0.4-0.6-0.9-1.3c-0.1,0.9-0.2,1.3-0.2,1.8c0,4.3,0,8.7,0,13c0,1.1-0.3,1.6-1.5,1.5
		c-2.1-0.1-4.2-0.1-6.2,0c-1,0-1.3-0.3-1.3-1.3c0-7.4,0-14.7,0-22.1c0-10,0-20.1,0-30.1C462.2,2.9,462.3,2.1,462.4,1.3z"/>
	<path d="M415.6,22.2c0.6-2.7,2.6-2.1,4.4-2.1c0.9,0,1.8,0,2.8,0c0.1,0.4,0.1,0.7,0.1,0.9c0,11.5,0,22.9,0,34.4c0,1.9,0,1.9-1.8,1.9
		c-0.2,0-0.3,0-0.5,0c-1.9-0.2-4.3,1-4.8-1.8c-2.1,0.9-4,1.8-6,2.4c-2.6,0.8-5.3,0.4-7.8-0.6c-3.7-1.4-5.8-4.3-6.4-8
		c-1.2-7.2-1.3-14.5,0.1-21.6c1.3-6.8,7.4-9.1,12.9-8.3C411.1,19.7,413.5,20.4,415.6,22.2z M413.7,38.6c0.1,0,0.1,0,0.2,0
		c0-2.2,0.1-4.3,0-6.5c-0.2-2.8-1.9-4.4-4.8-4.5c-2.6-0.1-4.7,1.2-4.8,3.6c-0.2,4.8-0.2,9.6,0,14.5c0.1,2.4,2.1,3.9,4.6,4
		c2.6,0,4.5-1.3,4.8-3.8C413.9,43.5,413.7,41.1,413.7,38.6z"/>
	<path d="M502.6,41.3c0.1,2,0.1,3.8,0.4,5.5c0.3,1.8,1.5,3.1,3.4,3.5c1.9,0.4,3.7,0.2,4.9-1.5c0.6-0.8,0.8-1.9,1-2.9
		c0.1-0.6,0.2-1,1-1c2.4,0,4.7,0,7.1,0c0.8,0,1,0.3,0.9,1.1c-0.4,8.1-6,12.2-13.9,12c-3.7-0.1-7.1-1.1-9.9-3.8
		c-2-2.1-3.4-4.6-3.5-7.4c-0.2-5.5-0.5-11-0.1-16.4c0.6-6.8,5.7-11,12.5-11.2c4.7-0.2,8.8,1,11.9,4.7c2.3,2.7,2.8,6,2.9,9.3
		c0.1,2.1,0.1,4.2,0.1,6.4c0,1.7-0.1,1.9-1.8,1.9c-5,0-10-0.1-15-0.2C504,41.3,503.4,41.3,502.6,41.3z M502.5,34.6c3.2,0,6.1,0,9,0
		c0.3,0,0.7-0.5,0.7-0.7c0-1.1,0-2.3-0.2-3.3c-0.5-2.5-1.9-3.5-4.9-3.6c-2,0-3.7,1.2-4.2,3.4C502.7,31.7,502.7,33.1,502.5,34.6z"/>
	<path d="M356.3,39.8c-0.1,2.3-0.1,5.1-0.5,7.8c-0.9,5.6-4.6,9.2-10.2,10.2c-4.8,0.9-9.4,0.2-13.2-3.1c-2.2-1.9-3.5-4.5-3.8-7.4
		c-0.6-5.9-0.8-11.9,0.1-17.8c0.9-5.9,5.6-9.9,11.6-10.2c2.5-0.1,5,0,7.4,0.8c5.2,1.8,7.7,5.7,8.3,11
		C356.2,33.8,356.2,36.6,356.3,39.8z M347.1,38.6C347.1,38.6,347.2,38.6,347.1,38.6c0-2,0.2-3.9,0-5.9c-0.1-1.2-0.5-2.6-1.2-3.6
		c-1.3-2-3.5-1.7-5.5-1.4c-1.8,0.3-2.7,1.8-3,3.5c-0.2,1-0.3,2-0.3,3c0,2.9,0,5.8,0.1,8.7c0,1.2,0.2,2.3,0.5,3.4
		c0.4,1.6,1.5,2.6,3.2,3c3.6,0.8,6-0.9,6.3-4.7C347.3,42.7,347.1,40.6,347.1,38.6z"/>
	<path d="M299.7,57.2c-1.8,0-3.4,0-5,0c-0.4,0-0.7-0.4-1-0.8c-0.3-0.4-0.5-0.9-0.7-1.2c-1.8,0.9-3.4,1.9-5.2,2.4
		c-6.7,1.9-13.5-0.9-14.8-9.5c-0.3-2.1-0.4-4.1-0.4-6.2c-0.1-6.9,0-13.7-0.1-20.6c0-0.8,0.2-1.2,1-1.1c2.7,0,5.3,0,8.2,0
		c0,0.7,0,1.2,0,1.7c0,7.5,0,14.9,0,22.4c0,0.7,0.1,1.3,0.2,2c0.6,2.5,2.2,3.8,4.6,3.6c2.3-0.2,4.1-2.1,4.2-4.5c0-2.2,0-4.5,0-6.7
		c0-5.6,0-11.2,0-16.7c0-0.5,0-0.9,0-1.5c3,0,6,0,9,0C299.7,32.5,299.7,44.8,299.7,57.2z"/>
	<path d="M447.2,35.3c-0.1-1.6-0.1-2.8-0.3-4.1c-0.4-2.4-2-3.7-4.4-3.7c-2.5,0-4.3,1.3-4.5,3.7c-0.3,3-0.3,6.1-0.3,9.1
		c0,1.8,0,3.6,0.2,5.4c0.4,2.6,2.1,4,4.5,4c2.5,0,4.1-1.4,4.5-4c0.2-0.9,0.2-1.9,0.2-2.9c0-0.8,0.3-1,1-1c2.3,0,4.7,0,7,0
		c0.6,0,1,0.2,1,0.9c-0.1,2.6-0.1,5.2-1.2,7.7c-1.8,4.3-5.2,6.7-9.7,7.3c-4.5,0.7-8.8,0-12.4-3.2c-2.4-2.2-3.6-5-3.9-8.1
		c-0.5-5.6-0.8-11.2,0.1-16.8c1.4-8.4,8.4-11.2,15.3-10.4c2.3,0.3,4.5,0.9,6.4,2.3c3.2,2.3,4.7,5.5,5.1,9.4c0.1,1.2,0.2,2.3,0.2,3.5
		c0,0.3-0.4,0.8-0.6,0.8C452.7,35.4,450,35.3,447.2,35.3z"/>
	<path d="M308,28.5c-1.4,0-2.6,0.1-3.8,0c-0.3,0-0.9-0.5-0.9-0.8c-0.1-2.5,0-4.9,0-7.6c1.2,0,2.4-0.1,3.6,0c1,0.1,1.2-0.3,1.2-1.2
		c0-2.7,0-5.3-0.1-8c0-1,0.3-1.3,1.3-1.3c2.2,0,4.5,0.1,6.7,0c0.9,0,1.1,0.3,1.1,1.2c0,2.7,0,5.4,0,8.1c0,0.9,0.2,1.1,1.1,1.1
		c2.1-0.1,4.2,0,6.6,0c0,1.9,0,3.5,0,5.2c0,3.2,0,3.2-3.3,3.2c-1.1,0-2.2,0.1-3.2,0.1c-0.7,0-1.2,0.3-1.2,1.1
		c0,4.7-0.1,9.4,0.1,14.1c0.2,3.7,2,5,5.6,5c0.4,0,0.8,0,1.1,0c0.7-0.1,1,0.2,1,0.9c0,0.2,0,0.3,0,0.5c0,2.3,0,4.6,0,7
		c-4.3,0-8.3,0.5-12.1-1.3c-2.3-1.1-3.6-3.1-4.1-5.5c-0.4-2.4-0.6-4.8-0.7-7.2c-0.1-4.4,0-8.8,0-13.2C308,29.4,308,29,308,28.5z"/>
	<path d="M535.7,57.2c-2.7,0-5.3,0-8,0c-0.3,0-0.7-0.6-0.8-1c-0.2-1.6-0.3-3.2-0.3-4.7c0-9.7,0.1-19.4,0.1-29.1
		c0-0.7-0.1-1.3-0.1-2.2c2,0,4,0,6.1,0c0.3,0,0.5,0.4,0.7,0.7c0.4,0.6,0.8,1.2,1.2,1.8c2.4-1.8,5-2.8,7.9-3.2
		c3.3-0.4,3.3-0.5,3.2,2.9c0,1.1-0.1,2.3,0,3.4c0.1,1.2-0.3,1.7-1.5,1.5c-2.1-0.2-4,0.2-5.6,1.5c-1.8,1.5-2.6,3.4-2.7,5.7
		c-0.1,2.7,0,5.3,0,8c0,4.2,0,8.5,0,12.7C535.9,55.9,535.8,56.5,535.7,57.2z"/>
</g>
</svg>
